<?xml version="1.0" encoding="UTF-8" standalone="no"?>
<!DOCTYPE svg PUBLIC "-//W3C//DTD SVG 1.1//EN" "http://www.w3.org/Graphics/SVG/1.1/DTD/svg11.dtd">
<svg width="100%" height="100%" viewBox="0 0 1182 1274" version="1.1" xmlns="http://www.w3.org/2000/svg" xmlns:xlink="http://www.w3.org/1999/xlink" xml:space="preserve" xmlns:serif="http://www.serif.com/" style="fill-rule:evenodd;clip-rule:evenodd;stroke-linejoin:round;stroke-miterlimit:2;">
    <g id="Artboard1" transform="matrix(0.704196,0,0,0.794572,-1289.130022,-2668.34719)">
        <rect x="1830.64" y="3358.221" width="1677.234" height="1602.409" style="fill:none;"/>
        <clipPath id="_clip1">
            <rect x="1830.64" y="3358.221" width="1677.234" height="1602.409"/>
        </clipPath>
        <g clip-path="url(#_clip1)">
            <g transform="matrix(6.000838,0,0,5.318298,-463.480571,1621.265042)">
                <g>
                    <path d="M567.5,481.8C575.2,480.9 583,480 590.7,479.1C590.8,479.1 590.8,473.1 590.8,473.9C590.8,469.7 590.9,465.5 590.9,461.3C590.9,457.1 590.9,452.9 590.8,448.7C590.8,448.2 590.7,443.5 590.7,443.5C583,444.4 575.2,445.3 567.5,446.2C567.4,446.2 567.4,452.2 567.4,451.4C567.4,455.6 567.3,459.8 567.3,464C567.3,468.2 567.3,472.4 567.4,476.6C567.4,477.1 567.5,481.8 567.5,481.8Z" style="fill:rgb(242,208,208);fill-rule:nonzero;"/>
                </g>
                <path d="M661.8,626.7C661.6,626.6 661.4,626.5 661.2,626.3C660.6,625.8 660.2,625.2 659.9,624.5C659.6,624.4 659.3,624.3 659,624.3L654.3,618.4C653.1,616.6 652.3,615.4 651.5,614.2C637.3,595.2 620.2,579.1 601.4,564.9C581.6,549.8 562.4,535.1 544,519.8C542.8,518.8 541.6,517.8 540.4,516.8C536.3,513.4 532.2,509.9 528.2,506.5C526.8,505.3 525.5,504.1 524.1,503C523,502.1 522,501.1 520.9,500.2C491.1,474 463.3,445.7 437.8,412.2C429.4,401.2 421.3,389.9 413,378.8C412,377.5 411,376.3 409.1,375.6C411.9,382 414.6,388.4 417.7,394.6C427.5,414.6 438,434.3 447.4,454.5C454.8,470.4 461.2,486.9 467.8,503.2C469,506.1 470.2,509.1 471.4,512.1C472.3,514.4 473.2,516.7 474.1,519C476.3,524.7 478.3,530.4 479.9,536.2C480.8,539.5 481.4,542.7 481.7,545.7C482.5,554 480.8,560.9 476.6,566.3C476.1,566.9 475.6,567.5 475.1,568.1C474.6,568.6 474.2,569.1 473.6,569.6C472.6,570.6 471.4,571.5 470.2,572.3L462.9,576.2L462.2,576.6C460.3,577.4 458.3,578.1 456.2,578.7C443.2,582.5 429.8,585.1 416.8,588.8C415.7,589.1 414.5,589.4 413.4,589.8C408.1,591.4 403,593.5 398.2,596.4C398.2,596.4 398.1,596.4 398.1,596.5C393.8,598.7 390.1,602 387.4,606C387.2,606.3 387,606.6 386.8,606.9C386.7,607 386.6,607.2 386.5,607.3C386.3,606.7 386.1,606.1 385.9,605.4C385.9,605.3 385.8,605.2 385.8,605.1C385.4,603.8 385.1,602.5 384.8,601.3C384.8,601.1 384.7,600.9 384.7,600.8C384.3,599 384.1,597.2 383.9,595.3C383.8,593.9 383.7,592.5 383.7,591C383.7,585.8 384.5,580.8 386,576.1C387.3,573.2 388.9,570.4 390.7,567.8C393.4,564.2 396.6,561 400.2,558.4L409.5,553.5L420,547.9C423.8,546.1 427.6,544.3 431.4,542.4C431.8,542.2 432.2,542 432.7,541.8C437.7,539.3 442.7,536.7 447.2,533.4C452.5,529.6 457,524.9 459.9,518.4C462.1,513.6 463.3,508.9 463.4,504.1C463.5,498.9 462.4,493.7 459.9,488.5C442.2,452.4 424.8,416.1 407.3,379.9C399.6,363.9 391.8,347.9 384,331.9C383.3,330.4 382.9,328.8 382.3,327.2C382.7,327 383.1,326.8 383.5,326.6C386.1,331.2 388.7,335.8 391.3,340.4C400.6,356.4 412.2,370.6 424.8,384C449.7,410.4 478.6,432.3 507.1,454.5C518.8,463.6 530.1,473 541.1,482.8C541.6,483.2 542.1,483.7 542.6,484.1C565.7,504.8 587.1,527.1 607,551.2C625.9,574.1 644,597.6 659.7,622.9C660.3,624 661,625.3 661.8,626.7Z" style="fill:rgb(242,208,208);fill-rule:nonzero;"/>
                <path d="M661.8,626.8L661.6,628C661.2,627.9 623.6,622.9 587.7,601.8C566.5,589.4 550.1,573.9 538.8,555.9C528.5,539.4 522.6,520.8 521,500.3C522.1,501.2 523.1,502.2 524.2,503.1C528.2,544 549.9,576.2 589.1,599.3C601.4,606.5 613.9,611.9 625,615.7C608.7,608.6 594.5,600 582.7,590C566.7,576.4 554.8,560.2 547.4,541.7C543.9,532.9 541.7,524.6 540.5,517C541.7,518 542.9,519 544.1,520C545.4,526.5 547.3,533.5 550.2,540.8C561.4,568.7 589.4,605.6 659,624.5C659.3,624.6 659.6,624.7 659.9,624.7C660.2,625.4 660.6,626 661.2,626.5C661.3,626.5 661.5,626.7 661.8,626.8Z" style="fill:rgb(242,208,208);fill-rule:nonzero;"/>
            </g>
        </g>
    </g>
</svg>
